<?xml version="1.0" encoding="UTF-8"?>
<svg width="270px" height="72px" viewBox="0 0 270 72" version="1.1" xmlns="http://www.w3.org/2000/svg" xmlns:xlink="http://www.w3.org/1999/xlink">
    <!-- Generator: Sketch 49.1 (51147) - http://www.bohemiancoding.com/sketch -->
    <title>Fullsize OUTLINES</title>
    <desc>Created with Sketch.</desc>
    <defs></defs>
    <g id="Fullsize-OUTLINES" stroke="none" stroke-width="1" fill="none" fill-rule="evenodd">
        <path d="M8.855,3.655 C8.415,2.665 8.91,1.675 9.79,1.235 C10.78,0.905 11.825,1.345 12.21,2.28 L17.93,16.195 L23.595,2.28 C23.925,1.345 25.025,0.905 25.96,1.235 C26.895,1.675 27.335,2.665 27.005,3.655 L19.58,21.75 C18.975,23.235 16.83,23.235 16.17,21.75 L8.855,3.655 Z M31.9,2.28 C32.285,1.345 33.385,0.905 34.265,1.235 C35.2,1.675 35.64,2.665 35.255,3.655 L19.58,42.1 C18.92,43.64 16.83,43.64 16.17,42.1 L0.495,3.655 C0.165,2.665 0.55,1.675 1.54,1.235 C2.475,0.905 3.52,1.345 3.905,2.28 L17.93,36.6 L31.9,2.28 Z M46.915,30.55 C45.925,30.55 45.1,29.725 45.1,28.68 C45.1,27.635 45.925,26.865 46.915,26.865 L49.555,26.865 L47.905,22.795 C47.575,21.86 48.015,20.76 48.895,20.43 C49.885,20.045 50.93,20.485 51.315,21.365 L54.01,27.965 C54.12,28.185 54.175,28.405 54.175,28.68 C54.175,29.725 53.295,30.55 52.25,30.55 L46.915,30.55 Z M44.22,40.065 C43.89,41 42.845,41.44 41.855,41.11 C40.92,40.67 40.48,39.625 40.865,38.69 L42.185,35.335 C42.515,34.675 43.23,34.18 43.89,34.18 L55.275,34.18 C56.1,34.18 56.815,34.785 57.035,35.5 L58.355,38.69 C58.685,39.625 58.3,40.67 57.365,41.11 C56.43,41.44 55.33,41.055 54.945,40.065 L54.065,37.92 L45.155,37.92 L44.22,40.065 Z M36.355,40.065 C35.915,41 34.87,41.44 33.935,41.11 C33.055,40.67 32.56,39.625 32.89,38.69 L47.905,1.18 C48.29,0.19 49.39,-0.25 50.27,0.135 C50.82,0.3 51.15,0.74 51.315,1.18 L66.275,38.69 C66.66,39.625 66.22,40.67 65.285,41.11 C64.35,41.44 63.25,41 62.865,40.065 L49.61,6.68 L36.355,40.065 Z M92.565,2.555 C94.82,3.325 93.61,6.845 91.3,6.02 C86.35,4.26 80.41,3.325 76.78,7.34 C73.81,10.475 73.04,16.25 77,19.66 C81.785,23.95 88.605,23.015 88.99,28.845 C89.155,31.925 86.46,34.18 83.49,34.4 C79.915,34.62 75.46,33.74 71.83,31.1 C69.905,29.725 72.05,26.755 73.975,28.13 C78.21,31.21 85.635,31.76 85.305,29.01 C85.085,26.425 79.64,26.865 74.525,22.41 C66.55,15.425 71.39,1.51 82.72,0.96 C86.02,0.795 88.715,1.235 92.565,2.555 Z M71.115,38.91 C69.025,37.81 70.73,34.565 72.875,35.665 C81.345,40.175 92.84,39.02 92.84,28.845 C92.84,21.31 82.94,19.935 80.135,17.68 C75.735,14.215 78.045,4.48 91.74,10.035 C93.885,10.915 92.565,14.325 90.31,13.39 C82.005,10.035 80.575,13.445 82.39,14.875 C84.425,16.415 96.47,18.615 96.47,28.845 C96.47,38.91 87.56,43.64 77.275,41.165 C75.405,40.78 73.26,40.065 71.115,38.91 Z M123.695,2.555 C125.95,3.325 124.74,6.845 122.43,6.02 C117.48,4.26 111.54,3.325 107.91,7.34 C104.94,10.475 104.17,16.25 108.13,19.66 C112.915,23.95 119.735,23.015 120.12,28.845 C120.285,31.925 117.59,34.18 114.62,34.4 C111.045,34.62 106.59,33.74 102.96,31.1 C101.035,29.725 103.18,26.755 105.105,28.13 C109.34,31.21 116.765,31.76 116.435,29.01 C116.215,26.425 110.77,26.865 105.655,22.41 C97.68,15.425 102.52,1.51 113.85,0.96 C117.15,0.795 119.845,1.235 123.695,2.555 Z M102.245,38.91 C100.155,37.81 101.86,34.565 104.005,35.665 C112.475,40.175 123.97,39.02 123.97,28.845 C123.97,21.31 114.07,19.935 111.265,17.68 C106.865,14.215 109.175,4.48 122.87,10.035 C125.015,10.915 123.695,14.325 121.44,13.39 C113.135,10.035 111.705,13.445 113.52,14.875 C115.555,16.415 127.6,18.615 127.6,28.845 C127.6,38.91 118.69,43.64 108.405,41.165 C106.535,40.78 104.39,40.065 102.245,38.91 Z M144.815,30.55 C143.825,30.55 143,29.725 143,28.68 C143,27.635 143.825,26.865 144.815,26.865 L147.455,26.865 L145.805,22.795 C145.475,21.86 145.915,20.76 146.795,20.43 C147.785,20.045 148.83,20.485 149.215,21.365 L151.91,27.965 C152.02,28.185 152.075,28.405 152.075,28.68 C152.075,29.725 151.195,30.55 150.15,30.55 L144.815,30.55 Z M142.12,40.065 C141.79,41 140.745,41.44 139.755,41.11 C138.82,40.67 138.38,39.625 138.765,38.69 L140.085,35.335 C140.415,34.675 141.13,34.18 141.79,34.18 L153.175,34.18 C154,34.18 154.715,34.785 154.935,35.5 L156.255,38.69 C156.585,39.625 156.2,40.67 155.265,41.11 C154.33,41.44 153.23,41.055 152.845,40.065 L151.965,37.92 L143.055,37.92 L142.12,40.065 Z M134.255,40.065 C133.815,41 132.77,41.44 131.835,41.11 C130.955,40.67 130.46,39.625 130.79,38.69 L145.805,1.18 C146.19,0.19 147.29,-0.25 148.17,0.135 C148.72,0.3 149.05,0.74 149.215,1.18 L164.175,38.69 C164.56,39.625 164.12,40.67 163.185,41.11 C162.25,41.44 161.15,41 160.765,40.065 L147.51,6.68 L134.255,40.065 Z M185.57,19.495 C185.075,19.495 184.36,19.55 183.755,19.495 C180.895,19.33 180.785,15.865 183.755,15.865 C185.46,15.865 187.495,16.14 187.495,13.995 C187.495,12.895 186.615,12.125 185.57,12.125 L179.025,12.125 C176.605,12.125 176.605,8.44 179.025,8.44 L185.57,8.44 C188.925,8.44 191.125,11.245 191.125,14.05 C191.125,17.13 188.595,19.495 185.57,19.495 Z M188.98,38.635 C190.355,40.615 187.385,42.76 185.955,40.78 L180.895,33.465 L180.895,39.735 C180.895,42.155 177.21,42.155 177.21,39.735 L177.21,27.745 C177.21,25.765 179.52,25.215 180.565,26.59 L188.98,38.635 Z M173.525,39.735 C173.525,42.155 169.84,42.155 169.84,39.735 L169.84,2.94 C169.84,1.95 170.72,1.125 171.71,1.125 L186.175,1.125 C197.45,1.125 203.115,14.93 195.195,23.07 C193.6,24.665 191.62,25.875 189.42,26.425 L197.945,38.635 C199.32,40.615 196.295,42.76 194.975,40.78 L184.8,26.205 C183.7,24.775 184.8,23.18 186.175,23.18 C194.26,23.18 198.22,13.17 192.555,7.45 C190.905,5.8 188.65,4.81 186.175,4.81 L173.525,4.81 L173.525,39.735 Z" id="Vassar" fill="#9B0000"></path>
        <path d="M111.77,32.94 C111.77,31.95 112.595,31.125 113.585,31.125 C114.63,31.125 115.455,31.95 115.455,32.94 L115.455,45.81 L122.77,45.81 L122.77,32.94 C122.77,31.95 123.595,31.125 124.64,31.125 C125.63,31.125 126.455,31.95 126.455,32.94 L126.455,47.68 C126.455,48.67 125.63,49.495 124.64,49.495 L113.585,49.495 C112.595,49.495 111.77,48.67 111.77,47.68 L111.77,32.94 Z M126.455,69.735 C126.455,70.725 125.63,71.55 124.64,71.55 C123.595,71.55 122.77,70.725 122.77,69.735 L122.77,56.865 L115.455,56.865 L115.455,69.735 C115.455,70.725 114.63,71.55 113.585,71.55 C112.595,71.55 111.77,70.725 111.77,69.735 L111.77,54.995 C111.77,54.005 112.595,53.18 113.585,53.18 L124.64,53.18 C125.63,53.18 126.455,54.005 126.455,54.995 L126.455,69.735 Z M108.085,69.735 C108.085,70.725 107.26,71.55 106.27,71.55 C105.225,71.55 104.4,70.725 104.4,69.735 L104.4,32.94 C104.4,31.95 105.225,31.125 106.27,31.125 C107.26,31.125 108.085,31.95 108.085,32.94 L108.085,69.735 Z M130.14,32.94 C130.14,31.95 130.965,31.125 131.955,31.125 C133,31.125 133.825,31.95 133.825,32.94 L133.825,69.735 C133.825,70.725 133,71.55 131.955,71.55 C130.965,71.55 130.14,70.725 130.14,69.735 L130.14,32.94 Z M153.295,60.55 C152.305,60.55 151.48,59.725 151.48,58.68 C151.48,57.635 152.305,56.865 153.295,56.865 L155.935,56.865 L154.285,52.795 C153.955,51.86 154.395,50.76 155.275,50.43 C156.265,50.045 157.31,50.485 157.695,51.365 L160.39,57.965 C160.5,58.185 160.555,58.405 160.555,58.68 C160.555,59.725 159.675,60.55 158.63,60.55 L153.295,60.55 Z M150.6,70.065 C150.27,71 149.225,71.44 148.235,71.11 C147.3,70.67 146.86,69.625 147.245,68.69 L148.565,65.335 C148.895,64.675 149.61,64.18 150.27,64.18 L161.655,64.18 C162.48,64.18 163.195,64.785 163.415,65.5 L164.735,68.69 C165.065,69.625 164.68,70.67 163.745,71.11 C162.81,71.44 161.71,71.055 161.325,70.065 L160.445,67.92 L151.535,67.92 L150.6,70.065 Z M142.735,70.065 C142.295,71 141.25,71.44 140.315,71.11 C139.435,70.67 138.94,69.625 139.27,68.69 L154.285,31.18 C154.67,30.19 155.77,29.75 156.65,30.135 C157.2,30.3 157.53,30.74 157.695,31.18 L172.655,68.69 C173.04,69.625 172.6,70.67 171.665,71.11 C170.73,71.44 169.63,71 169.245,70.065 L155.99,36.68 L142.735,70.065 Z M204.115,31.95 C206.315,32.885 204.94,36.24 202.685,35.36 C200.485,34.425 198.175,33.985 195.81,33.985 C185.91,33.985 178.87,41.465 178.87,51.145 C178.925,59.78 184.7,68.195 195.975,68.195 C198.34,68.195 200.54,67.7 202.685,66.875 C204.94,65.94 206.315,69.35 204.115,70.23 C201.53,71.275 198.78,71.825 195.975,71.825 C182.28,71.825 175.35,61.54 175.295,51.255 C175.24,40.805 182.115,30.355 195.975,30.355 C198.78,30.355 201.53,30.905 204.115,31.95 Z M201.585,59.23 C203.675,58.13 205.435,61.265 203.29,62.42 C200.925,63.795 198.34,64.4 195.81,64.345 C189.1,64.235 183.16,59.285 183.16,51.145 C183.16,39.815 194.38,34.81 203.29,39.815 C205.435,40.915 203.675,44.16 201.585,42.95 C195.205,39.43 186.79,42.565 186.79,51.145 C186.79,57.195 191.025,60.495 195.755,60.66 C197.68,60.715 199.715,60.275 201.585,59.23 Z M215.225,69.735 C215.225,70.725 214.4,71.55 213.355,71.55 C212.365,71.55 211.54,70.725 211.54,69.735 L211.54,32.94 C211.54,31.95 212.365,31.125 213.355,31.125 C214.4,31.125 215.225,31.95 215.225,32.94 L215.225,69.735 Z M230.68,68.635 C231.23,69.515 231.065,70.615 230.185,71.22 C229.36,71.77 228.26,71.605 227.655,70.78 L222.54,63.465 L222.54,69.735 C222.54,70.725 221.77,71.55 220.725,71.55 C219.735,71.55 218.91,70.725 218.91,69.735 L218.91,57.69 C218.91,55.82 221.22,55.105 222.21,56.59 L230.68,68.635 Z M227.655,31.895 C228.26,31.07 229.36,30.85 230.185,31.455 C231.065,32.06 231.23,33.16 230.68,33.985 L222.21,46.085 C221.66,46.91 220.505,47.13 219.68,46.525 C219.13,46.14 218.91,45.59 218.91,44.93 L218.91,32.94 C218.91,31.95 219.735,31.125 220.725,31.125 C221.77,31.125 222.54,31.95 222.54,32.94 L222.54,39.21 L227.655,31.895 Z M236.62,31.895 C237.225,31.07 238.325,30.85 239.15,31.455 C240.03,32.06 240.195,33.16 239.645,33.985 L227.545,51.31 L239.645,68.635 C240.195,69.515 240.03,70.615 239.15,71.22 C238.325,71.77 237.225,71.605 236.62,70.78 L223.805,52.41 C223.365,51.805 223.365,50.925 223.805,50.265 L236.62,31.895 Z M265.77,32.555 C268.025,33.325 266.815,36.845 264.505,36.02 C259.555,34.26 253.615,33.325 249.985,37.34 C247.015,40.475 246.245,46.25 250.205,49.66 C254.99,53.95 261.81,53.015 262.195,58.845 C262.36,61.925 259.665,64.18 256.695,64.4 C253.12,64.62 248.665,63.74 245.035,61.1 C243.11,59.725 245.255,56.755 247.18,58.13 C251.415,61.21 258.84,61.76 258.51,59.01 C258.29,56.425 252.845,56.865 247.73,52.41 C239.755,45.425 244.595,31.51 255.925,30.96 C259.225,30.795 261.92,31.235 265.77,32.555 Z M244.32,68.91 C242.23,67.81 243.935,64.565 246.08,65.665 C254.55,70.175 266.045,69.02 266.045,58.845 C266.045,51.31 256.145,49.935 253.34,47.68 C248.94,44.215 251.25,34.48 264.945,40.035 C267.09,40.915 265.77,44.325 263.515,43.39 C255.21,40.035 253.78,43.445 255.595,44.875 C257.63,46.415 269.675,48.615 269.675,58.845 C269.675,68.91 260.765,73.64 250.48,71.165 C248.61,70.78 246.465,70.065 244.32,68.91 Z" id="Hacks" fill="#000000"></path>
    </g>
</svg>