<?xml version="1.0" encoding="UTF-8"?>
<svg width="913px" height="670px" viewBox="0 0 913 670" version="1.1" xmlns="http://www.w3.org/2000/svg" xmlns:xlink="http://www.w3.org/1999/xlink">
    <!-- Generator: Sketch 47.1 (45422) - http://www.bohemiancoding.com/sketch -->
    <title>vassarhacks1</title>
    <desc>Created with Sketch.</desc>
    <defs></defs>
    <g id="Page-1" stroke="none" stroke-width="1" fill="none" fill-rule="evenodd">
        <g id="vassarhacks1">
            <circle id="Oval-2" fill="#FB7272" cx="459" cy="335" r="235"></circle>
            <circle id="Oval" stroke="#000000" stroke-width="20" cx="459" cy="335" r="325"></circle>
            <g id="kwhites" transform="translate(735.000000, 293.000000)" fill="#FFFFFF">
                <polygon id="Rectangle-6" points="67.4004324 68.5474383 84.136429 91.5825615 26.6962224 133.315314 9.96022576 110.280191"></polygon>
                <polygon id="Rectangle-5" points="28 111 70 111 70 143 28 143"></polygon>
            </g>
            <path d="M150.630859,134 L56.2070312,307.378906 L4,134 L28.921875,134 L63.296875,249.585938 L124.097656,134 L150.630859,134 Z M245.376953,198.667969 L232.916016,299.859375 L209.175781,299.859375 L210.572266,288.902344 C200.402944,297.782596 189.875705,302.222656 178.990234,302.222656 C165.59824,302.222656 154.677126,297.675176 146.226562,288.580078 C137.775999,279.484981 133.550781,267.704499 133.550781,253.238281 C133.550781,236.552 138.384717,222.873751 148.052734,212.203125 C157.863981,201.532499 170.432215,196.197266 185.757812,196.197266 C192.990922,196.197266 199.149714,197.378894 204.234375,199.742188 C209.390651,202.105481 214.65427,206.187471 220.025391,211.988281 L221.636719,198.667969 L245.376953,198.667969 Z M216.480469,246.363281 C216.480469,237.411414 213.90237,230.142606 208.746094,224.556641 C203.589818,218.89906 196.929728,216.070312 188.765625,216.070312 C179.885372,216.070312 172.43753,219.543585 166.421875,226.490234 C160.40622,233.508499 157.398438,242.102163 157.398438,252.271484 C157.398438,261.151737 159.904923,268.420545 164.917969,274.078125 C169.931015,279.735705 176.376263,282.564453 184.253906,282.564453 C192.990929,282.564453 200.546192,279.019567 206.919922,271.929688 C213.293652,264.696578 216.480469,256.174528 216.480469,246.363281 Z M338.833984,209.839844 L325.40625,223.267578 C319.104135,217.609998 313.267605,214.78125 307.896484,214.78125 C304.244122,214.78125 301.218436,215.801748 298.819336,217.842773 C296.420235,219.883799 295.220703,222.408188 295.220703,225.416016 C295.220703,228.352228 296.223297,230.822907 298.228516,232.828125 C300.233734,234.904958 304.423145,237.697899 310.796875,241.207031 C319.891973,246.291692 325.979151,250.946593 329.058594,255.171875 C332.352881,259.325542 334,264.732389 334,271.392578 C334,280.98898 330.669955,288.687471 324.009766,294.488281 C317.206346,300.217477 308.362034,303.082031 297.476562,303.082031 C282.65227,303.082031 270.370491,296.386135 260.630859,282.994141 L276.207031,272.144531 C282.580761,279.80733 289.384078,283.638672 296.617188,283.638672 C300.699239,283.638672 303.975574,282.564464 306.446289,280.416016 C308.917005,278.267567 310.152344,275.474627 310.152344,272.037109 C310.152344,269.029282 309.113943,266.59441 307.037109,264.732422 C306.0345,263.801428 304.27996,262.512378 301.773438,260.865234 C299.266915,259.218091 295.865256,257.248709 291.568359,254.957031 C283.977176,250.73175 278.713556,246.613952 275.777344,242.603516 C272.841131,238.378234 271.373047,233.222036 271.373047,227.134766 C271.373047,217.968053 274.738899,210.376983 281.470703,204.361328 C288.202508,198.345673 296.760365,195.337891 307.144531,195.337891 C318.602922,195.337891 329.165967,200.171827 338.833984,209.839844 Z M427.671875,209.839844 L414.244141,223.267578 C407.942026,217.609998 402.105496,214.78125 396.734375,214.78125 C393.082013,214.78125 390.056327,215.801748 387.657227,217.842773 C385.258126,219.883799 384.058594,222.408188 384.058594,225.416016 C384.058594,228.352228 385.061188,230.822907 387.066406,232.828125 C389.071625,234.904958 393.261036,237.697899 399.634766,241.207031 C408.729863,246.291692 414.817042,250.946593 417.896484,255.171875 C421.190772,259.325542 422.837891,264.732389 422.837891,271.392578 C422.837891,280.98898 419.507846,288.687471 412.847656,294.488281 C406.044237,300.217477 397.199924,303.082031 386.314453,303.082031 C371.49016,303.082031 359.208382,296.386135 349.46875,282.994141 L365.044922,272.144531 C371.418652,279.80733 378.221969,283.638672 385.455078,283.638672 C389.53713,283.638672 392.813464,282.564464 395.28418,280.416016 C397.754895,278.267567 398.990234,275.474627 398.990234,272.037109 C398.990234,269.029282 397.951833,266.59441 395.875,264.732422 C394.872391,263.801428 393.117851,262.512378 390.611328,260.865234 C388.104805,259.218091 384.703146,257.248709 380.40625,254.957031 C372.815066,250.73175 367.551447,246.613952 364.615234,242.603516 C361.679022,238.378234 360.210938,233.222036 360.210938,227.134766 C360.210938,217.968053 363.576789,210.376983 370.308594,204.361328 C377.040398,198.345673 385.598255,195.337891 395.982422,195.337891 C407.440812,195.337891 418.003858,200.171827 427.671875,209.839844 Z M555.503906,198.667969 L543.042969,299.859375 L519.302734,299.859375 L520.699219,288.902344 C510.529897,297.782596 500.002659,302.222656 489.117187,302.222656 C475.725193,302.222656 464.804079,297.675176 456.353516,288.580078 C447.902953,279.484981 443.677734,267.704499 443.677734,253.238281 C443.677734,236.552 448.51167,222.873751 458.179687,212.203125 C467.990934,201.532499 480.559168,196.197266 495.884766,196.197266 C503.117875,196.197266 509.276667,197.378894 514.361328,199.742188 C519.517604,202.105481 524.781223,206.187471 530.152344,211.988281 L531.763672,198.667969 L555.503906,198.667969 Z M526.607422,246.363281 C526.607422,237.411414 524.029323,230.142606 518.873047,224.556641 C513.716771,218.89906 507.056681,216.070312 498.892578,216.070312 C490.012325,216.070312 482.564483,219.543585 476.548828,226.490234 C470.533173,233.508499 467.525391,242.102163 467.525391,252.271484 C467.525391,261.151737 470.031876,268.420545 475.044922,274.078125 C480.057968,279.735705 486.503216,282.564453 494.380859,282.564453 C503.117882,282.564453 510.673145,279.019567 517.046875,271.929688 C523.420605,264.696578 526.607422,256.174528 526.607422,246.363281 Z M612.4375,198.667969 L611.363281,207.369141 C619.384155,199.777957 627.476522,195.982422 635.640625,195.982422 C642.802119,195.982422 649.318981,198.596328 655.191406,203.824219 L640.044922,223.375 C635.67641,219.651023 631.307965,217.789062 626.939453,217.789062 C623.931626,217.789062 621.281912,218.379877 618.990234,219.561523 C616.698556,220.74317 614.711271,222.605131 613.02832,225.147461 C611.345369,227.689791 609.948899,230.966126 608.838867,234.976562 C607.728836,238.986999 606.851566,243.785128 606.207031,249.371094 L599.976562,299.859375 L576.236328,299.859375 L588.697266,198.667969 L612.4375,198.667969 Z" id="Vassar" fill="#000000"></path>
            <path d="M500.583536,304.509973 L430.127041,469.66445 L405.63198,469.66445 L440.061843,389.012588 L371.81796,389.012588 L337.495062,469.66445 L313,469.66445 L383.456495,304.509973 L407.844591,304.509973 L380.285041,369.224001 L448.528924,369.224001 L476.088474,304.509973 L500.583536,304.509973 Z M608.432543,368.903105 L565.438189,469.66445 L541.79885,469.66445 L546.5013,458.753986 C533.69103,467.596498 521.866468,472.017687 511.02726,472.017687 C497.692182,472.017687 488.192014,467.489533 482.526474,458.43309 C476.860933,449.376646 476.21447,437.646232 480.587067,423.241495 C485.630705,406.62613 494.578519,393.006013 507.430779,382.380737 C520.425659,371.755461 534.553119,366.442902 549.813583,366.442902 C557.015952,366.442902 562.791407,367.619509 567.140124,369.972758 C571.56015,372.326007 575.567566,376.390649 579.162492,382.166806 L584.793204,368.903105 L608.432543,368.903105 Z M565.24236,416.395713 C567.948175,407.481891 567.578121,400.243976 564.132187,394.68175 C560.7079,389.048215 554.93114,386.231489 546.801734,386.231489 C537.959222,386.231489 529.493193,389.69 521.403392,396.607126 C513.291945,403.595563 507.699403,412.152704 504.625597,422.278807 C501.941429,431.121319 502.240174,438.359234 505.52184,443.99277 C508.803505,449.626305 514.366337,452.443031 522.2105,452.443031 C530.910391,452.443031 539.505031,448.91321 547.994678,441.853463 C556.527617,434.651094 562.276787,426.165263 565.24236,416.395713 Z M712.977969,378.63695 L702.677277,402.704151 C699.711405,396.50013 696.429173,392.043286 692.830485,389.333484 C689.281461,386.694992 684.547631,385.375766 678.628853,385.375766 C669.64372,385.375766 661.256637,388.691659 653.467354,395.323542 C645.678071,401.955426 640.203316,410.476913 637.042925,420.888257 C634.077352,430.657807 634.416856,438.466198 638.061445,444.313666 C641.755699,450.232444 647.952678,453.191788 656.652569,453.191788 C664.995907,453.191788 674.71749,449.590658 685.817611,442.38829 L675.150197,467.311213 C664.896824,471.019363 655.634262,472.87341 647.362235,472.87341 C632.600945,472.87341 622.046411,468.060018 615.698315,458.43309 C609.42153,448.806162 608.61015,436.326997 613.264151,420.995223 C618.048031,405.235585 626.997765,392.07898 640.11362,381.525014 C653.322432,370.899738 667.342928,365.587179 682.175528,365.587179 C694.298327,365.587179 704.565704,369.93706 712.977969,378.63695 Z M802.762225,289 L751.969296,408.052417 L806.211446,368.903105 L837.76622,368.903105 L770.963411,414.898199 L796.804208,469.66445 L768.244463,469.66445 L746.10174,421.74398 L725.67226,469.66445 L702.032921,469.66445 L779.122886,289 L802.762225,289 Z M913.329797,380.0275 L895.900429,393.398166 C891.335172,387.764631 886.378472,384.947905 881.030178,384.947905 C877.393339,384.947905 874.072054,385.964066 871.066224,387.996417 C868.060394,390.028769 866.102931,392.542429 865.193777,395.537473 C864.30627,398.461207 864.55781,400.921385 865.948404,402.918081 C867.317351,404.986088 870.644756,407.767159 875.930718,411.261377 C883.450259,416.324428 888.104565,420.959547 889.893775,425.166871 C891.918564,429.302884 891.924395,434.686752 889.911269,441.318636 C887.010636,450.874254 881.367778,458.540026 872.982526,464.316183 C864.4763,470.02103 854.803728,472.87341 843.96452,472.87341 C829.20323,472.87341 818.997568,466.205971 813.347228,452.870892 L832.136632,442.067394 C836.167096,449.697626 841.783428,453.512684 848.985797,453.512684 C853.0505,453.512684 856.637603,452.443042 859.747213,450.303724 C862.856824,448.164407 864.931114,445.383336 865.970147,441.960428 C866.879301,438.965384 866.581284,436.540861 865.076086,434.686786 C864.359143,433.759748 863.001691,432.476177 861.003691,430.836033 C859.00569,429.19589 856.213759,427.234879 852.627813,424.95294 C846.346036,420.745616 842.349443,416.645319 840.637914,412.651927 C838.991325,408.444602 839.088005,403.310318 840.927959,397.248918 C843.698713,388.121164 849.344757,380.562356 857.866259,374.572268 C866.38776,368.582179 875.818387,365.587179 886.158421,365.587179 C897.568114,365.587179 906.625148,370.400571 913.329797,380.0275 Z" id="Hacks" fill="#000000"></path>
        </g>
    </g>
</svg>
